[img]http://img856.imageshack.us/img856/7213/dreamjy.jpg[/img]
[code]
Dream House 2011 R5 READNFO XviD-26K

Imdb: 
http://www.imdb.com/title/tt1462041/

Plot:
Soon after moving into their seemingly idyllic new home, a family learns of a brutal crime committed 

against former residents of the dwelling.

Sources:
Russian ! THNXS
DTRG! FOR AUDIO THNXS

Notes:
encodes video of russian vobs!!! then ad to save audio as pcm so i could cut the video into parts and 

get it into sync! big thnxs to DTRG for the audio &lt;3 

Greetz:
To all the people who have helped me :P you know who you are

Anything to offer email us @: 26k@hushmail.me

Video
ID                                       : 0
Format                                   : MPEG-4 Visual
Format profile                           : Advanced Simple@L5
Format settings, BVOP                    : 2
Format settings, QPel                    : No
Format settings, GMC                     : No warppoints
Format settings, Matrix                  : Default (H.263)
Muxing mode                              : Packed bitstream
Codec ID                                 : XVID
Codec ID/Hint                            : XviD
Duration                                 : 1h 27mn
Bit rate                                 : 1 014 Kbps
Width                                    : 720 pixels
Height                                   : 300 pixels
Display aspect ratio                     : 2.40:1
Frame rate                               : 25.000 fps
Color space                              : YUV
Chroma subsampling                       : 4:2:0
Bit depth                                : 8 bits
Scan type                                : Progressive
Compression mode                         : Lossy
Bits/(Pixel*Frame)                       : 0.188
Stream size                              : 632 MiB (89%)
Writing library                          : XviD 1.2.1 (UTC 2008-12-04)

Audio
ID                                       : 1
Format                                   : MPEG Audio
Format version                           : Version 1
Format profile                           : Layer 3
Mode                                     : Joint stereo
Mode extension                           : MS Stereo
Codec ID                                 : 55
Codec ID/Hint                            : MP3
Duration                                 : 1h 22mn
Bit rate mode                            : Constant
Bit rate                                 : 128 Kbps
Channel(s)                               : 2 channels
Sampling rate                            : 44.1 KHz
Compression mode                         : Lossy
Delay relative to video                  : 9s 900ms
Stream size                              : 75.2 MiB (11%)
Alignment                                : Split accross interleaves
Interleave, duration                     : 42 ms (1.06 video frame)
Interleave, preload duration             : 500 ms
Writing library                          : LAME3.98r
Encoding settings                        : -m j -V 4 -q 2 -lowpass 17 -b 128

[/code]
Screens:
[img]http://img21.imageshack.us/img21/7214/vlcsnap2011121321h06m17.png[/img]
[img]http://img849.imageshack.us/img849/1475/vlcsnap2011121321h06m22.png[/img]
[img]http://img97.imageshack.us/img97/830/vlcsnap2011121321h06m27.png[/img]
[img]http://img708.imageshack.us/img708/2060/vlcsnap2011121321h06m32.png[/img]
[img]http://img827.imageshack.us/img827/3372/vlcsnap2011121321h07m05.png[/img]
[img]http://img850.imageshack.us/img850/7384/vlcsnap2011121321h07m12.png[/img]

[img]http://img851.imageshack.us/img851/5503/26ks.jpg[/img]
Thank you smallz for banner!
